<svg width="96" height="96" viewBox="0 0 96 96" fill="none" xmlns="http://www.w3.org/2000/svg">
  <defs>
    <linearGradient id="bg" x1="14" y1="8" x2="84" y2="92" gradientUnits="userSpaceOnUse">
      <stop stop-color="#2A3D7A" />
      <stop offset="1" stop-color="#0E172D" />
    </linearGradient>
    <linearGradient id="shirt" x1="48" y1="52" x2="48" y2="94" gradientUnits="userSpaceOnUse">
      <stop stop-color="#4B70D8" />
      <stop offset="1" stop-color="#3048B3" />
    </linearGradient>
  </defs>
  <rect x="2" y="2" width="92" height="92" rx="46" fill="url(#bg)" />
  <circle cx="48" cy="38" r="16" fill="#F4D1B2" />
  <path d="M32 30C32 21.1634 39.1634 14 48 14C56.8366 14 64 21.1634 64 30V33H32V30Z" fill="#121A32" />
  <path d="M21 86C21 70.536 33.536 58 49 58H47C62.464 58 75 70.536 75 86V94H21V86Z" fill="url(#shirt)" />
  <circle cx="42" cy="38" r="1.75" fill="#2D1D16" />
  <circle cx="54" cy="38" r="1.75" fill="#2D1D16" />
  <path d="M43 45.5C44.7 47.3 46.5 48.2 48 48.2C49.5 48.2 51.3 47.3 53 45.5" stroke="#2D1D16" stroke-width="1.8" stroke-linecap="round" />
  <rect x="2" y="2" width="92" height="92" rx="46" stroke="rgba(255,255,255,0.3)" stroke-width="2" />
</svg>
